{
  "accessors": [
    {
      "bufferView": 1,
      "componentType": 5126,
      "count": 6710,
      "max": [
        181.835205078125,
        320.31768798828125,
        499.71389770507812
      ],
      "min": [
        -400.59228515625,
        -494.8214111328125,
        15.063400268554688
      ],
      "type": "VEC3"
    },
    {
      "bufferView": 1,
      "byteOffset": 80520,
      "componentType": 5126,
      "count": 6710,
      "max": [
        0.99985820055007935,
        0.9988439679145813,
        0.99410980939865112
      ],
      "min": [
        -0.9994046688079834,
        -0.99596619606018066,
        -0.99111175537109375
      ],
      "type": "VEC3"
    },
    {
      "bufferView": 0,
      "componentType": 5125,
      "count": 15300,
      "max": [
        6709
      ],
      "min": [
        0
      ],
      "type": "SCALAR"
    },
    {
      "bufferView": 1,
      "byteOffset": 161040,
      "componentType": 5126,
      "count": 3600,
      "max": [
        200.29220581054688,
        341.57550048828125,
        529.20172119140625
      ],
      "min": [
        -426.3197021484375,
        -522.4215087890625,
        -0.58799999952316284
      ],
      "type": "VEC3"
    },
    {
      "bufferView": 1,
      "byteOffset": 204240,
      "componentType": 5126,
      "count": 3600,
      "max": [
        0.99963563680648804,
        0.9999043345451355,
        0.99466842412948608
      ],
      "min": [
        -0.99935305118560791,
        -0.99734371900558472,
        -0.99885410070419312
      ],
      "type": "VEC3"
    },
    {
      "bufferView": 0,
      "byteOffset": 61200,
      "componentType": 5125,
      "count": 8100,
      "max": [
        3599
      ],
      "min": [
        0
      ],
      "type": "SCALAR"
    },
    {
      "bufferView": 1,
      "byteOffset": 247440,
      "componentType": 5126,
      "count": 400,
      "max": [
        113.12490081787109,
        202.13310241699219,
        313.54818725585938
      ],
      "min": [
        -241.58120727539062,
        -312.86770629882812,
        -2.7004001140594482
      ],
      "type": "VEC3"
    },
    {
      "bufferView": 1,
      "byteOffset": 252240,
      "componentType": 5126,
      "count": 400,
      "max": [
        0.99572622776031494,
        0.98379570245742798,
        0.99385172128677368
      ],
      "min": [
        -0.98590713739395142,
        -0.90641069412231445,
        -0.98176199197769165
      ],
      "type": "VEC3"
    },
    {
      "bufferView": 0,
      "byteOffset": 93600,
      "componentType": 5125,
      "count": 900,
      "max": [
        399
      ],
      "min": [
        0
      ],
      "type": "SCALAR"
    },
    {
      "bufferView": 1,
      "byteOffset": 257040,
      "componentType": 5126,
      "count": 32400,
      "max": [
        254.24740600585938,
        399.10580444335938,
        586.98828125
      ],
      "min": [
        -487.94659423828125,
        -578.60137939453125,
        -29.678699493408203
      ],
      "type": "VEC3"
    },
    {
      "bufferView": 1,
      "byteOffset": 645840,
      "componentType": 5126,
      "count": 32400,
      "max": [
        0.99990683794021606,
        0.9999319314956665,
        0.99995851516723633
      ],
      "min": [
        -0.99990683794021606,
        -0.9999319314956665,
        -0.99995851516723633
      ],
      "type": "VEC3"
    },
    {
      "bufferView": 0,
      "byteOffset": 97200,
      "componentType": 5125,
      "count": 97200,
      "max": [
        32399
      ],
      "min": [
        0
      ],
      "type": "SCALAR"
    },
    {
      "bufferView": 1,
      "byteOffset": 1034640,
      "componentType": 5126,
      "count": 44,
      "max": [
        23.606899261474609,
        29.353399276733398,
        55.727298736572266
      ],
      "min": [
        -25.82390022277832,
        -20.700899124145508,
        20.999599456787109
      ],
      "type": "VEC3"
    },
    {
      "bufferView": 1,
      "byteOffset": 1035168,
      "componentType": 5126,
      "count": 44,
      "max": [
        0.84624242782592773,
        0.54513180255889893,
        0.8165968656539917
      ],
      "min": [
        -0.84624242782592773,
        -0.54513180255889893,
        -0.8165968656539917
      ],
      "type": "VEC3"
    },
    {
      "bufferView": 0,
      "byteOffset": 486000,
      "componentType": 5125,
      "count": 144,
      "max": [
        43
      ],
      "min": [
        0
      ],
      "type": "SCALAR"
    },
    {
      "bufferView": 1,
      "byteOffset": 1035696,
      "componentType": 5126,
      "count": 80,
      "max": [
        4.4320998191833496,
        6.1870999336242676,
        21.517200469970703
      ],
      "min": [
        -5.088709831237793,
        -5.3457999229431152,
        -0.17339999973773956
      ],
      "type": "VEC3"
    },
    {
      "bufferView": 1,
      "byteOffset": 1036656,
      "componentType": 5126,
      "count": 80,
      "max": [
        0.950827956199646,
        0.9962468147277832,
        0.34827330708503723
      ],
      "min": [
        -0.95803171396255493,
        -0.98704469203948975,
        -0.42691001296043396
      ],
      "type": "VEC3"
    },
    {
      "bufferView": 0,
      "byteOffset": 486576,
      "componentType": 5125,
      "count": 180,
      "max": [
        79
      ],
      "min": [
        0
      ],
      "type": "SCALAR"
    },
    {
      "bufferView": 1,
      "byteOffset": 1037616,
      "componentType": 5126,
      "count": 1008,
      "max": [
        4.7070999145507812,
        4.9528999328613281,
        3.7221999168395996
      ],
      "min": [
        -4.9660000801086426,
        -4.7477002143859863,
        -4.4697999954223633
      ],
      "type": "VEC3"
    },
    {
      "bufferView": 1,
      "byteOffset": 1049712,
      "componentType": 5126,
      "count": 1008,
      "max": [
        0.99989819526672363,
        0.99904435873031616,
        0.99808001518249512
      ],
      "min": [
        -0.99483019113540649,
        -0.99852931499481201,
        -0.99728906154632568
      ],
      "type": "VEC3"
    },
    {
      "bufferView": 0,
      "byteOffset": 487296,
      "componentType": 5125,
      "count": 1440,
      "max": [
        1007
      ],
      "min": [
        0
      ],
      "type": "SCALAR"
    },
    {
      "bufferView": 1,
      "byteOffset": 1061808,
      "componentType": 5126,
      "count": 3168,
      "max": [
        282.32681274414062,
        289.10220336914062,
        440.59381103515625
      ],
      "min": [
        -322.96270751953125,
        -448.194091796875,
        -198.3341064453125
      ],
      "type": "VEC3"
    },
    {
      "bufferView": 1,
      "byteOffset": 1099824,
      "componentType": 5126,
      "count": 3168,
      "max": [
        0.99968856573104858,
        0.9997984766960144,
        0.99880516529083252
      ],
      "min": [
        -0.99968856573104858,
        -0.9997984766960144,
        -0.99880516529083252
      ],
      "type": "VEC3"
    },
    {
      "bufferView": 0,
      "byteOffset": 493056,
      "componentType": 5125,
      "count": 10368,
      "max": [
        3167
      ],
      "min": [
        0
      ],
      "type": "SCALAR"
    },
    {
      "bufferView": 1,
      "byteOffset": 1137840,
      "componentType": 5126,
      "count": 11430,
      "max": [
        110.89099884033203,
        157.00210571289062,
        254.481201171875
      ],
      "min": [
        -147.19419860839844,
        -249.59190368652344,
        -85.0255126953125
      ],
      "type": "VEC3"
    },
    {
      "bufferView": 1,
      "byteOffset": 1275000,
      "componentType": 5126,
      "count": 11430,
      "max": [
        0.99950909614562988,
        0.99988448619842529,
        0.99955761432647705
      ],
      "min": [
        -0.998077392578125,
        -0.99996757507324219,
        -0.99967539310455322
      ],
      "type": "VEC3"
    },
    {
      "bufferView": 0,
      "byteOffset": 534528,
      "componentType": 5125,
      "count": 25920,
      "max": [
        11429
      ],
      "min": [
        0
      ],
      "type": "SCALAR"
    }
  ],
  "asset": {
    "extras": {
      "author": "adorezooey (https://sketchfab.com/adorezooey)",
      "license": "CC-BY-4.0 (http://creativecommons.org/licenses/by/4.0/)",
      "source": "https://sketchfab.com/3d-models/plants-2744a7394966496c9dad1d1397a72569",
      "title": "plants"
    },
    "generator": "Sketchfab-10.12.0",
    "version": "2.0"
  },
  "bufferViews": [
    {
      "buffer": 0,
      "byteLength": 638208,
      "byteOffset": 0,
      "name": "floatBufferViews",
      "target": 34963
    },
    {
      "buffer": 0,
      "byteLength": 1412160,
      "byteOffset": 638208,
      "byteStride": 12,
      "name": "floatBufferViews",
      "target": 34962
    }
  ],
  "buffers": [
    {
      "byteLength": 2050368,
      "uri": "scene.bin"
    }
  ],
  "materials": [
    {
      "doubleSided": true,
      "emissiveFactor": [
        0,
        0,
        0
      ],
      "name": "1coreopsi_1InfInt",
      "pbrMetallicRoughness": {
        "baseColorFactor": [
          0.19600000000000001,
          0.3921,
          0.19600000000000001,
          1
        ],
        "metallicFactor": 0,
        "roughnessFactor": 0.40000000000000002
      }
    },
    {
      "doubleSided": true,
      "emissiveFactor": [
        0,
        0,
        0
      ],
      "name": "1coreopsi_1Pdcel",
      "pbrMetallicRoughness": {
        "baseColorFactor": [
          0.19600000000000001,
          0.3921,
          0.19600000000000001,
          1
        ],
        "metallicFactor": 0,
        "roughnessFactor": 0.40000000000000002
      }
    },
    {
      "doubleSided": true,
      "emissiveFactor": [
        0,
        0,
        0
      ],
      "name": "1coreopsi_1Pdncle",
      "pbrMetallicRoughness": {
        "baseColorFactor": [
          0.19600000000000001,
          0.3921,
          0.19600000000000001,
          1
        ],
        "metallicFactor": 0,
        "roughnessFactor": 0.40000000000000002
      }
    },
    {
      "doubleSided": true,
      "emissiveFactor": [
        0,
        0,
        0
      ],
      "name": "1coreopsi_1Petal1",
      "pbrMetallicRoughness": {
        "baseColorFactor": [
          1,
          0.70189999999999997,
          0.85089999999999999,
          1
        ],
        "metallicFactor": 0,
        "roughnessFactor": 0.40000000000000002
      }
    },
    {
      "doubleSided": true,
      "emissiveFactor": [
        0,
        0,
        0
      ],
      "name": "1coreopsi_1stLeaf",
      "pbrMetallicRoughness": {
        "baseColorFactor": [
          0.19600000000000001,
          0.3921,
          0.19600000000000001,
          1
        ],
        "metallicFactor": 0,
        "roughnessFactor": 0.40000000000000002
      }
    },
    {
      "doubleSided": true,
      "emissiveFactor": [
        0,
        0,
        0
      ],
      "name": "1coreopsi_1stPetiole",
      "pbrMetallicRoughness": {
        "baseColorFactor": [
          0.19600000000000001,
          0.3921,
          0.19600000000000001,
          1
        ],
        "metallicFactor": 0,
        "roughnessFactor": 0.40000000000000002
      }
    },
    {
      "doubleSided": true,
      "emissiveFactor": [
        0,
        0,
        0
      ],
      "name": "1coreopsi_Intrnd",
      "pbrMetallicRoughness": {
        "baseColorFactor": [
          0.19600000000000001,
          0.3921,
          0.19600000000000001,
          1
        ],
        "metallicFactor": 0,
        "roughnessFactor": 0.40000000000000002
      }
    },
    {
      "doubleSided": true,
      "emissiveFactor": [
        0,
        0,
        0
      ],
      "name": "1coreopsi_Leaf",
      "pbrMetallicRoughness": {
        "baseColorFactor": [
          0.19600000000000001,
          0.7843,
          0.19600000000000001,
          1
        ],
        "metallicFactor": 0,
        "roughnessFactor": 0.40000000000000002
      }
    },
    {
      "doubleSided": true,
      "emissiveFactor": [
        0,
        0,
        0
      ],
      "name": "1coreopsi_Petiole",
      "pbrMetallicRoughness": {
        "baseColorFactor": [
          0.19600000000000001,
          0.3921,
          0.19600000000000001,
          1
        ],
        "metallicFactor": 0,
        "roughnessFactor": 0.40000000000000002
      }
    }
  ],
  "meshes": [
    {
      "primitives": [
        {
          "attributes": {
            "NORMAL": 1,
            "POSITION": 0
          },
          "indices": 2,
          "material": 0,
          "mode": 4
        }
      ]
    },
    {
      "primitives": [
        {
          "attributes": {
            "NORMAL": 4,
            "POSITION": 3
          },
          "indices": 5,
          "material": 1,
          "mode": 4
        }
      ]
    },
    {
      "primitives": [
        {
          "attributes": {
            "NORMAL": 7,
            "POSITION": 6
          },
          "indices": 8,
          "material": 2,
          "mode": 4
        }
      ]
    },
    {
      "primitives": [
        {
          "attributes": {
            "NORMAL": 10,
            "POSITION": 9
          },
          "indices": 11,
          "material": 3,
          "mode": 4
        }
      ]
    },
    {
      "primitives": [
        {
          "attributes": {
            "NORMAL": 13,
            "POSITION": 12
          },
          "indices": 14,
          "material": 4,
          "mode": 4
        }
      ]
    },
    {
      "primitives": [
        {
          "attributes": {
            "NORMAL": 16,
            "POSITION": 15
          },
          "indices": 17,
          "material": 5,
          "mode": 4
        }
      ]
    },
    {
      "primitives": [
        {
          "attributes": {
            "NORMAL": 19,
            "POSITION": 18
          },
          "indices": 20,
          "material": 6,
          "mode": 4
        }
      ]
    },
    {
      "primitives": [
        {
          "attributes": {
            "NORMAL": 22,
            "POSITION": 21
          },
          "indices": 23,
          "material": 7,
          "mode": 4
        }
      ]
    },
    {
      "primitives": [
        {
          "attributes": {
            "NORMAL": 25,
            "POSITION": 24
          },
          "indices": 26,
          "material": 8,
          "mode": 4
        }
      ]
    }
  ],
  "nodes": [
    {
      "children": [
        1
      ],
      "name": "RootNode (gltf orientation matrix)",
      "rotation": [
        -0.70710678118654746,
        -0,
        -0,
        0.70710678118654757
      ]
    },
    {
      "children": [
        2
      ],
      "name": "RootNode (model correction matrix)"
    },
    {
      "children": [
        3,
        4,
        5,
        6,
        7,
        8,
        9,
        10,
        11
      ],
      "name": "plants1.obj.cleaner.materialmerger.gles"
    },
    {
      "mesh": 0,
      "name": ""
    },
    {
      "mesh": 1,
      "name": ""
    },
    {
      "mesh": 2,
      "name": ""
    },
    {
      "mesh": 3,
      "name": ""
    },
    {
      "mesh": 4,
      "name": ""
    },
    {
      "mesh": 5,
      "name": ""
    },
    {
      "mesh": 6,
      "name": ""
    },
    {
      "mesh": 7,
      "name": ""
    },
    {
      "mesh": 8,
      "name": ""
    }
  ],
  "scene": 0,
  "scenes": [
    {
      "name": "OSG_Scene",
      "nodes": [
        0
      ]
    }
  ]
}

