{
    "asset" : {
        "generator" : "Khronos glTF Blender I/O v1.4.40",
        "version" : "2.0"
    },
    "scene" : 0,
    "scenes" : [
        {
            "name" : "Scene",
            "nodes" : [
                5
            ]
        }
    ],
    "nodes" : [
        {
            "mesh" : 0,
            "name" : "Object_10"
        },
        {
            "mesh" : 1,
            "name" : "Object_3"
        },
        {
            "mesh" : 2,
            "name" : "Object_8"
        },
        {
            "mesh" : 3,
            "name" : "Object_9"
        },
        {
            "children" : [
                0,
                1,
                2,
                3
            ],
            "name" : "hada.obj.cleaner.materialmerger.gles"
        },
        {
            "children" : [
                4
            ],
            "name" : "Sketchfab_model",
            "rotation" : [
                -0.7071068286895752,
                0,
                0,
                0.7071068286895752
            ]
        }
    ],
    "materials" : [
        {
            "doubleSided" : true,
            "name" : "lambert43SG",
            "pbrMetallicRoughness" : {
                "baseColorFactor" : [
                    0.6399999856948853,
                    0.23000000417232513,
                    0.7099999785423279,
                    1
                ],
                "metallicFactor" : 0
            }
        },
        {
            "doubleSided" : true,
            "name" : "lambert32SG",
            "pbrMetallicRoughness" : {
                "baseColorFactor" : [
                    0.7599999904632568,
                    0.5699999928474426,
                    0.11999999731779099,
                    1
                ],
                "metallicFactor" : 0
            }
        },
        {
            "doubleSided" : true,
            "name" : "lambert30SG",
            "pbrMetallicRoughness" : {
                "baseColorFactor" : [
                    0.7599999904632568,
                    0.5699999928474426,
                    0.11999999731779099,
                    1
                ],
                "metallicFactor" : 0
            }
        },
        {
            "doubleSided" : true,
            "name" : "lambert42SG",
            "pbrMetallicRoughness" : {
                "baseColorFactor" : [
                    0.3799999952316284,
                    0.25999999046325684,
                    0.009999999776482582,
                    1
                ],
                "metallicFactor" : 0
            }
        }
    ],
    "meshes" : [
        {
            "name" : "Object_8",
            "primitives" : [
                {
                    "attributes" : {
                        "POSITION" : 0,
                        "NORMAL" : 1,
                        "TEXCOORD_0" : 2
                    },
                    "indices" : 3,
                    "material" : 0
                }
            ]
        },
        {
            "name" : "Object_1",
            "primitives" : [
                {
                    "attributes" : {
                        "POSITION" : 4,
                        "NORMAL" : 5,
                        "TEXCOORD_0" : 6
                    },
                    "indices" : 7,
                    "material" : 1
                }
            ]
        },
        {
            "name" : "Object_6",
            "primitives" : [
                {
                    "attributes" : {
                        "POSITION" : 8,
                        "NORMAL" : 9,
                        "TEXCOORD_0" : 10
                    },
                    "indices" : 11,
                    "material" : 2
                }
            ]
        },
        {
            "name" : "Object_7",
            "primitives" : [
                {
                    "attributes" : {
                        "POSITION" : 12,
                        "NORMAL" : 13,
                        "TEXCOORD_0" : 14
                    },
                    "indices" : 15,
                    "material" : 3
                }
            ]
        }
    ],
    "accessors" : [
        {
            "bufferView" : 0,
            "componentType" : 5126,
            "count" : 2801,
            "max" : [
                7.494275093078613,
                1.66520094871521,
                13.509269714355469
            ],
            "min" : [
                -7.204068183898926,
                0.722491979598999,
                8.727434158325195
            ],
            "type" : "VEC3"
        },
        {
            "bufferView" : 1,
            "componentType" : 5126,
            "count" : 2801,
            "type" : "VEC3"
        },
        {
            "bufferView" : 2,
            "componentType" : 5126,
            "count" : 2801,
            "type" : "VEC2"
        },
        {
            "bufferView" : 3,
            "componentType" : 5123,
            "count" : 4080,
            "type" : "SCALAR"
        },
        {
            "bufferView" : 4,
            "componentType" : 5126,
            "count" : 56,
            "max" : [
                3.5386900901794434,
                1.0624350309371948,
                11.980746269226074
            ],
            "min" : [
                0.8654590249061584,
                -0.1612910032272339,
                11.04385757446289
            ],
            "type" : "VEC3"
        },
        {
            "bufferView" : 5,
            "componentType" : 5126,
            "count" : 56,
            "type" : "VEC3"
        },
        {
            "bufferView" : 6,
            "componentType" : 5126,
            "count" : 56,
            "type" : "VEC2"
        },
        {
            "bufferView" : 7,
            "componentType" : 5123,
            "count" : 84,
            "type" : "SCALAR"
        },
        {
            "bufferView" : 8,
            "componentType" : 5126,
            "count" : 1386,
            "max" : [
                -0.8019869923591614,
                1.0851809978485107,
                13.87827205657959
            ],
            "min" : [
                -2.6858060359954834,
                -0.24729500710964203,
                11.033501625061035
            ],
            "type" : "VEC3"
        },
        {
            "bufferView" : 9,
            "componentType" : 5126,
            "count" : 1386,
            "type" : "VEC3"
        },
        {
            "bufferView" : 10,
            "componentType" : 5126,
            "count" : 1386,
            "type" : "VEC2"
        },
        {
            "bufferView" : 11,
            "componentType" : 5123,
            "count" : 6600,
            "type" : "SCALAR"
        },
        {
            "bufferView" : 12,
            "componentType" : 5126,
            "count" : 878,
            "max" : [
                0.7766500115394592,
                -0.210439994931221,
                13.236781120300293
            ],
            "min" : [
                -0.794206976890564,
                -0.3358460068702698,
                13.102032661437988
            ],
            "type" : "VEC3"
        },
        {
            "bufferView" : 13,
            "componentType" : 5126,
            "count" : 878,
            "type" : "VEC3"
        },
        {
            "bufferView" : 14,
            "componentType" : 5126,
            "count" : 878,
            "type" : "VEC2"
        },
        {
            "bufferView" : 15,
            "componentType" : 5123,
            "count" : 4560,
            "type" : "SCALAR"
        }
    ],
    "bufferViews" : [
        {
            "buffer" : 0,
            "byteLength" : 33612,
            "byteOffset" : 0
        },
        {
            "buffer" : 0,
            "byteLength" : 33612,
            "byteOffset" : 33612
        },
        {
            "buffer" : 0,
            "byteLength" : 22408,
            "byteOffset" : 67224
        },
        {
            "buffer" : 0,
            "byteLength" : 8160,
            "byteOffset" : 89632
        },
        {
            "buffer" : 0,
            "byteLength" : 672,
            "byteOffset" : 97792
        },
        {
            "buffer" : 0,
            "byteLength" : 672,
            "byteOffset" : 98464
        },
        {
            "buffer" : 0,
            "byteLength" : 448,
            "byteOffset" : 99136
        },
        {
            "buffer" : 0,
            "byteLength" : 168,
            "byteOffset" : 99584
        },
        {
            "buffer" : 0,
            "byteLength" : 16632,
            "byteOffset" : 99752
        },
        {
            "buffer" : 0,
            "byteLength" : 16632,
            "byteOffset" : 116384
        },
        {
            "buffer" : 0,
            "byteLength" : 11088,
            "byteOffset" : 133016
        },
        {
            "buffer" : 0,
            "byteLength" : 13200,
            "byteOffset" : 144104
        },
        {
            "buffer" : 0,
            "byteLength" : 10536,
            "byteOffset" : 157304
        },
        {
            "buffer" : 0,
            "byteLength" : 10536,
            "byteOffset" : 167840
        },
        {
            "buffer" : 0,
            "byteLength" : 7024,
            "byteOffset" : 178376
        },
        {
            "buffer" : 0,
            "byteLength" : 9120,
            "byteOffset" : 185400
        }
    ],
    "buffers" : [
        {
            "byteLength" : 194520,
            "uri" : "data:application/octet-stream;base64,"
        }
    ]
}
