{
    "asset" : {
        "generator" : "Khronos glTF Blender I/O v1.4.40",
        "version" : "2.0"
    },
    "scene" : 0,
    "scenes" : [
        {
            "name" : "Scene",
            "nodes" : [
                10
            ]
        }
    ],
    "nodes" : [
        {
            "mesh" : 0,
            "name" : "Mesh_0",
            "scale" : [
                0.5,
                0.5,
                0.5
            ]
        },
        {
            "mesh" : 1,
            "name" : "Mesh_2"
        },
        {
            "mesh" : 2,
            "name" : "Mesh_3",
            "scale" : [
                0.5,
                0.5,
                0.5
            ]
        },
        {
            "mesh" : 3,
            "name" : "Mesh_4"
        },
        {
            "mesh" : 4,
            "name" : "Mesh_5"
        },
        {
            "mesh" : 5,
            "name" : "Mesh_6"
        },
        {
            "mesh" : 6,
            "name" : "Mesh_7",
            "scale" : [
                0.5,
                0.5,
                0.5
            ]
        },
        {
            "mesh" : 7,
            "name" : "Mesh_8"
        },
        {
            "children" : [
                0,
                1,
                2,
                3,
                4,
                5,
                6,
                7
            ],
            "name" : "plants1.obj.cleaner.materialmerger.gles"
        },
        {
            "children" : [
                8
            ],
            "name" : "RootNode (model correction matrix)"
        },
        {
            "children" : [
                9
            ],
            "name" : "RootNode (gltf orientation matrix)",
            "rotation" : [
                -0.7071068286895752,
                0,
                0,
                0.7071068286895752
            ]
        }
    ],
    "materials" : [
        {
            "doubleSided" : true,
            "name" : "1coreopsi_1InfInt",
            "pbrMetallicRoughness" : {
                "baseColorFactor" : [
                    0.19599999487400055,
                    0.3921000063419342,
                    0.19599999487400055,
                    1
                ],
                "metallicFactor" : 0,
                "roughnessFactor" : 0.4000000059604645
            }
        },
        {
            "doubleSided" : true,
            "name" : "1coreopsi_1Pdncle",
            "pbrMetallicRoughness" : {
                "baseColorFactor" : [
                    0.19599999487400055,
                    0.3921000063419342,
                    0.19599999487400055,
                    1
                ],
                "metallicFactor" : 0,
                "roughnessFactor" : 0.4000000059604645
            }
        },
        {
            "doubleSided" : true,
            "name" : "1coreopsi_1Petal1",
            "pbrMetallicRoughness" : {
                "baseColorFactor" : [
                    1,
                    0.7019000053405762,
                    0.8508999943733215,
                    1
                ],
                "metallicFactor" : 0,
                "roughnessFactor" : 0.4000000059604645
            }
        },
        {
            "doubleSided" : true,
            "name" : "1coreopsi_1stLeaf",
            "pbrMetallicRoughness" : {
                "baseColorFactor" : [
                    0.19599999487400055,
                    0.3921000063419342,
                    0.19599999487400055,
                    1
                ],
                "metallicFactor" : 0,
                "roughnessFactor" : 0.4000000059604645
            }
        },
        {
            "doubleSided" : true,
            "name" : "1coreopsi_1stPetiole",
            "pbrMetallicRoughness" : {
                "baseColorFactor" : [
                    0.19599999487400055,
                    0.3921000063419342,
                    0.19599999487400055,
                    1
                ],
                "metallicFactor" : 0,
                "roughnessFactor" : 0.4000000059604645
            }
        },
        {
            "doubleSided" : true,
            "name" : "1coreopsi_Intrnd",
            "pbrMetallicRoughness" : {
                "baseColorFactor" : [
                    0.19599999487400055,
                    0.3921000063419342,
                    0.19599999487400055,
                    1
                ],
                "metallicFactor" : 0,
                "roughnessFactor" : 0.4000000059604645
            }
        },
        {
            "doubleSided" : true,
            "name" : "1coreopsi_Leaf",
            "pbrMetallicRoughness" : {
                "baseColorFactor" : [
                    0.19599999487400055,
                    0.7843000292778015,
                    0.19599999487400055,
                    1
                ],
                "metallicFactor" : 0,
                "roughnessFactor" : 0.4000000059604645
            }
        },
        {
            "doubleSided" : true,
            "name" : "1coreopsi_Petiole",
            "pbrMetallicRoughness" : {
                "baseColorFactor" : [
                    0.19599999487400055,
                    0.3921000063419342,
                    0.19599999487400055,
                    1
                ],
                "metallicFactor" : 0,
                "roughnessFactor" : 0.4000000059604645
            }
        }
    ],
    "meshes" : [
        {
            "name" : "Mesh_0",
            "primitives" : [
                {
                    "attributes" : {
                        "POSITION" : 0,
                        "NORMAL" : 1
                    },
                    "indices" : 2,
                    "material" : 0
                }
            ]
        },
        {
            "name" : "Mesh_2",
            "primitives" : [
                {
                    "attributes" : {
                        "POSITION" : 3,
                        "NORMAL" : 4
                    },
                    "indices" : 5,
                    "material" : 1
                }
            ]
        },
        {
            "name" : "Mesh_3",
            "primitives" : [
                {
                    "attributes" : {
                        "POSITION" : 6,
                        "NORMAL" : 7
                    },
                    "indices" : 8,
                    "material" : 2
                }
            ]
        },
        {
            "name" : "Mesh_4",
            "primitives" : [
                {
                    "attributes" : {
                        "POSITION" : 9,
                        "NORMAL" : 10
                    },
                    "indices" : 11,
                    "material" : 3
                }
            ]
        },
        {
            "name" : "Mesh_5",
            "primitives" : [
                {
                    "attributes" : {
                        "POSITION" : 12,
                        "NORMAL" : 13
                    },
                    "indices" : 14,
                    "material" : 4
                }
            ]
        },
        {
            "name" : "Mesh_6",
            "primitives" : [
                {
                    "attributes" : {
                        "POSITION" : 15,
                        "NORMAL" : 16
                    },
                    "indices" : 17,
                    "material" : 5
                }
            ]
        },
        {
            "name" : "Mesh_7",
            "primitives" : [
                {
                    "attributes" : {
                        "POSITION" : 18,
                        "NORMAL" : 19
                    },
                    "indices" : 20,
                    "material" : 6
                }
            ]
        },
        {
            "name" : "Mesh_8",
            "primitives" : [
                {
                    "attributes" : {
                        "POSITION" : 21,
                        "NORMAL" : 22
                    },
                    "indices" : 23,
                    "material" : 7
                }
            ]
        }
    ],
    "accessors" : [
        {
            "bufferView" : 0,
            "componentType" : 5126,
            "count" : 9470,
            "max" : [
                181.835205078125,
                320.31768798828125,
                499.7138977050781
            ],
            "min" : [
                -400.59228515625,
                -494.8214111328125,
                15.063400268554688
            ],
            "type" : "VEC3"
        },
        {
            "bufferView" : 1,
            "componentType" : 5126,
            "count" : 9470,
            "type" : "VEC3"
        },
        {
            "bufferView" : 2,
            "componentType" : 5123,
            "count" : 15300,
            "type" : "SCALAR"
        },
        {
            "bufferView" : 3,
            "componentType" : 5126,
            "count" : 848,
            "max" : [
                113.1249008178711,
                202.1331024169922,
                313.5481872558594
            ],
            "min" : [
                -241.58120727539062,
                -312.8677062988281,
                -2.7004001140594482
            ],
            "type" : "VEC3"
        },
        {
            "bufferView" : 4,
            "componentType" : 5126,
            "count" : 848,
            "type" : "VEC3"
        },
        {
            "bufferView" : 5,
            "componentType" : 5123,
            "count" : 900,
            "type" : "SCALAR"
        },
        {
            "bufferView" : 6,
            "componentType" : 5126,
            "count" : 32400,
            "max" : [
                254.24740600585938,
                399.1058044433594,
                586.98828125
            ],
            "min" : [
                -487.94659423828125,
                -578.6013793945312,
                -29.678699493408203
            ],
            "type" : "VEC3"
        },
        {
            "bufferView" : 7,
            "componentType" : 5126,
            "count" : 32400,
            "type" : "VEC3"
        },
        {
            "bufferView" : 8,
            "componentType" : 5123,
            "count" : 97200,
            "type" : "SCALAR"
        },
        {
            "bufferView" : 9,
            "componentType" : 5126,
            "count" : 44,
            "max" : [
                23.60689926147461,
                29.3533992767334,
                55.727298736572266
            ],
            "min" : [
                -25.82390022277832,
                -20.700899124145508,
                20.99959945678711
            ],
            "type" : "VEC3"
        },
        {
            "bufferView" : 10,
            "componentType" : 5126,
            "count" : 44,
            "type" : "VEC3"
        },
        {
            "bufferView" : 11,
            "componentType" : 5123,
            "count" : 144,
            "type" : "SCALAR"
        },
        {
            "bufferView" : 12,
            "componentType" : 5126,
            "count" : 80,
            "max" : [
                4.43209981918335,
                6.187099933624268,
                21.517200469970703
            ],
            "min" : [
                -5.088709831237793,
                -5.345799922943115,
                -0.17339999973773956
            ],
            "type" : "VEC3"
        },
        {
            "bufferView" : 13,
            "componentType" : 5126,
            "count" : 80,
            "type" : "VEC3"
        },
        {
            "bufferView" : 14,
            "componentType" : 5123,
            "count" : 180,
            "type" : "SCALAR"
        },
        {
            "bufferView" : 15,
            "componentType" : 5126,
            "count" : 1008,
            "max" : [
                4.707099914550781,
                4.952899932861328,
                3.7221999168395996
            ],
            "min" : [
                -4.966000080108643,
                -4.747700214385986,
                -4.469799995422363
            ],
            "type" : "VEC3"
        },
        {
            "bufferView" : 16,
            "componentType" : 5126,
            "count" : 1008,
            "type" : "VEC3"
        },
        {
            "bufferView" : 17,
            "componentType" : 5123,
            "count" : 1440,
            "type" : "SCALAR"
        },
        {
            "bufferView" : 18,
            "componentType" : 5126,
            "count" : 3168,
            "max" : [
                282.3268127441406,
                289.1022033691406,
                440.59381103515625
            ],
            "min" : [
                -322.96270751953125,
                -448.194091796875,
                -198.3341064453125
            ],
            "type" : "VEC3"
        },
        {
            "bufferView" : 19,
            "componentType" : 5126,
            "count" : 3168,
            "type" : "VEC3"
        },
        {
            "bufferView" : 20,
            "componentType" : 5123,
            "count" : 10368,
            "type" : "SCALAR"
        },
        {
            "bufferView" : 21,
            "componentType" : 5126,
            "count" : 12955,
            "max" : [
                110.89099884033203,
                157.00210571289062,
                254.481201171875
            ],
            "min" : [
                -147.19419860839844,
                -249.59190368652344,
                -85.0255126953125
            ],
            "type" : "VEC3"
        },
        {
            "bufferView" : 22,
            "componentType" : 5126,
            "count" : 12955,
            "type" : "VEC3"
        },
        {
            "bufferView" : 23,
            "componentType" : 5123,
            "count" : 25920,
            "type" : "SCALAR"
        }
    ],
    "bufferViews" : [
        {
            "buffer" : 0,
            "byteLength" : 113640,
            "byteOffset" : 0
        },
        {
            "buffer" : 0,
            "byteLength" : 113640,
            "byteOffset" : 113640
        },
        {
            "buffer" : 0,
            "byteLength" : 30600,
            "byteOffset" : 227280
        },
        {
            "buffer" : 0,
            "byteLength" : 10176,
            "byteOffset" : 257880
        },
        {
            "buffer" : 0,
            "byteLength" : 10176,
            "byteOffset" : 268056
        },
        {
            "buffer" : 0,
            "byteLength" : 1800,
            "byteOffset" : 278232
        },
        {
            "buffer" : 0,
            "byteLength" : 388800,
            "byteOffset" : 280032
        },
        {
            "buffer" : 0,
            "byteLength" : 388800,
            "byteOffset" : 668832
        },
        {
            "buffer" : 0,
            "byteLength" : 194400,
            "byteOffset" : 1057632
        },
        {
            "buffer" : 0,
            "byteLength" : 528,
            "byteOffset" : 1252032
        },
        {
            "buffer" : 0,
            "byteLength" : 528,
            "byteOffset" : 1252560
        },
        {
            "buffer" : 0,
            "byteLength" : 288,
            "byteOffset" : 1253088
        },
        {
            "buffer" : 0,
            "byteLength" : 960,
            "byteOffset" : 1253376
        },
        {
            "buffer" : 0,
            "byteLength" : 960,
            "byteOffset" : 1254336
        },
        {
            "buffer" : 0,
            "byteLength" : 360,
            "byteOffset" : 1255296
        },
        {
            "buffer" : 0,
            "byteLength" : 12096,
            "byteOffset" : 1255656
        },
        {
            "buffer" : 0,
            "byteLength" : 12096,
            "byteOffset" : 1267752
        },
        {
            "buffer" : 0,
            "byteLength" : 2880,
            "byteOffset" : 1279848
        },
        {
            "buffer" : 0,
            "byteLength" : 38016,
            "byteOffset" : 1282728
        },
        {
            "buffer" : 0,
            "byteLength" : 38016,
            "byteOffset" : 1320744
        },
        {
            "buffer" : 0,
            "byteLength" : 20736,
            "byteOffset" : 1358760
        },
        {
            "buffer" : 0,
            "byteLength" : 155460,
            "byteOffset" : 1379496
        },
        {
            "buffer" : 0,
            "byteLength" : 155460,
            "byteOffset" : 1534956
        },
        {
            "buffer" : 0,
            "byteLength" : 51840,
            "byteOffset" : 1690416
        }
    ],
    "buffers" : [
        {
            "byteLength" : 1742256,
            "uri" : "data:application/octet-stream;base64,"
        }
    ]
}
